<?xml version="1.0" encoding="utf-8"?>
<!-- Generator: Adobe Illustrator 19.0.0, SVG Export Plug-In . SVG Version: 6.00 Build 0)  -->
<svg version="1.1" id="Layer_1" xmlns="http://www.w3.org/2000/svg" xmlns:xlink="http://www.w3.org/1999/xlink" x="0px" y="0px"
	 viewBox="0 0 162 15.5" style="enable-background:new 0 0 162 15.5;" xml:space="preserve">
<g>
	<path d="M3.7,13.8c-0.8-0.4-1.4-1.1-1.8-1.9c-0.4-0.8-0.6-1.7-0.6-2.8V1.5H4V9c0,0.9,0.2,1.7,0.6,2.2c0.4,0.5,1.1,0.8,1.9,0.8
		c0.8,0,1.4-0.3,1.9-0.8C8.8,10.6,9,9.9,9,9V1.5h2.8v7.7c0,1-0.2,1.9-0.6,2.8c-0.4,0.8-1,1.5-1.8,1.9c-0.8,0.5-1.8,0.7-2.9,0.7
		C5.4,14.5,4.5,14.3,3.7,13.8L3.7,13.8z M13.2,1.5h4.3c1.2,0,2.2,0.3,3,0.8c0.7,0.6,1.1,1.3,1.1,2.3c0,0.7-0.1,1.3-0.4,1.7
		c-0.3,0.5-0.7,0.8-1.2,1c1.5,0.6,2.3,1.6,2.3,3.2c0,0.7-0.2,1.4-0.6,2c-0.4,0.6-0.9,1-1.6,1.4c-0.7,0.3-1.5,0.5-2.4,0.5h-4.4V1.5z
		 M17.4,6.6c0.4,0,0.8-0.1,1.1-0.4c0.3-0.2,0.4-0.6,0.4-1s-0.1-0.8-0.4-1c-0.3-0.2-0.6-0.4-1.1-0.4H16v2.7H17.4z M17.5,11.8
		c0.6,0,1.1-0.1,1.4-0.4c0.3-0.3,0.5-0.7,0.5-1.2c0-0.5-0.2-0.9-0.5-1.2c-0.3-0.3-0.8-0.4-1.4-0.4H16v3.2H17.5z M23.2,1.5H26v12.8
		h-2.8V1.5z M28.8,13.8c-0.8-0.5-1.4-1.2-1.7-2.1l2.2-1.6c0.2,0.6,0.5,1,1,1.4c0.5,0.3,1,0.5,1.5,0.5c0.5,0,0.8-0.1,1.1-0.4
		c0.3-0.2,0.4-0.6,0.4-1c0-0.4-0.2-0.7-0.5-1C32.5,9.3,31.9,9,31,8.7c-1.1-0.4-2-0.9-2.6-1.5c-0.6-0.6-0.9-1.4-0.9-2.4
		c0-0.7,0.2-1.3,0.5-1.9c0.4-0.6,0.8-1,1.5-1.3c0.6-0.3,1.4-0.5,2.2-0.5c1,0,1.8,0.2,2.6,0.6c0.7,0.4,1.3,1,1.6,1.8l-2.2,1.5
		c-0.4-1-1.1-1.5-2.1-1.5c-0.4,0-0.8,0.1-1.1,0.3c-0.3,0.2-0.4,0.5-0.4,0.8c0,0.4,0.2,0.7,0.6,1c0.4,0.3,1.1,0.6,2,0.9
		c1.1,0.4,2,0.9,2.5,1.5c0.5,0.6,0.8,1.3,0.8,2.3c0,0.9-0.2,1.6-0.6,2.2c-0.4,0.6-0.9,1.1-1.6,1.4c-0.7,0.3-1.4,0.5-2.2,0.5
		C30.5,14.5,29.6,14.3,28.8,13.8L28.8,13.8z M46.7,2.1c1,0.6,1.8,1.4,2.3,2.4c0.6,1,0.8,2.1,0.8,3.4c0,1.2-0.3,2.4-0.8,3.4
		c-0.5,1-1.3,1.8-2.3,2.4c-1,0.6-2.1,0.9-3.4,0.9c-1.3,0-2.4-0.3-3.4-0.8c-1-0.6-1.8-1.3-2.3-2.3c-0.6-0.9-0.8-2-0.8-3.1
		c0-1.1,0.2-2,0.6-2.8c0.4-0.8,0.9-1.5,1.6-2L38.5,3c0.5-0.5,1.2-1,2.1-1.3c0.9-0.3,1.8-0.5,2.8-0.5C44.6,1.3,45.7,1.5,46.7,2.1
		L46.7,2.1z M45.3,11.4c0.6-0.3,1-0.8,1.3-1.4c0.3-0.6,0.5-1.3,0.5-2.1c0-0.8-0.2-1.5-0.5-2.1c-0.3-0.6-0.7-1.1-1.3-1.4
		c-0.6-0.3-1.2-0.5-1.9-0.5c-0.6,0-1.2,0.1-1.7,0.3c-0.5,0.2-0.9,0.5-1.2,0.8L41,5.5c-0.4,0.3-0.7,0.7-0.9,1.1
		c-0.2,0.4-0.3,1-0.3,1.6c0,0.7,0.1,1.3,0.4,1.8c0.3,0.6,0.7,1,1.3,1.3c0.6,0.3,1.2,0.5,2,0.5C44.1,11.9,44.8,11.7,45.3,11.4
		L45.3,11.4z M53.8,4.1v3h5.4v2.1h-5.4v5.1H51V1.5h8.8v2.6H53.8L53.8,4.1z M70.8,4.1h-3.6v10.2h-2.8V4.1h-3.6V1.5h10V4.1z
		 M79.9,13.7c-1-0.6-1.7-1.3-2.3-2.3c-0.5-1-0.8-2.2-0.8-3.5c0-1.3,0.3-2.4,0.8-3.4c0.5-1,1.3-1.8,2.2-2.4c0.9-0.6,2-0.8,3.2-0.8
		c1.2,0,2.3,0.3,3.1,0.8c0.9,0.5,1.5,1.2,2,2.2l-1.3,0.9c-0.4-0.8-0.9-1.3-1.5-1.7c-0.6-0.4-1.3-0.6-2.3-0.6c-0.9,0-1.7,0.2-2.4,0.6
		c-0.7,0.4-1.2,1-1.6,1.8c-0.4,0.8-0.6,1.6-0.6,2.6c0,1,0.2,1.9,0.6,2.7c0.4,0.8,0.9,1.3,1.6,1.8c0.7,0.4,1.5,0.6,2.4,0.6
		c0.9,0,1.7-0.2,2.2-0.5c0.5-0.4,1-1,1.5-1.8l1.4,1c-0.5,1-1.2,1.7-2,2.2c-0.8,0.5-1.8,0.8-3,0.8C82,14.5,80.9,14.3,79.9,13.7
		L79.9,13.7z M92.9,13.7c-1-0.6-1.7-1.4-2.2-2.4c-0.5-1-0.8-2.1-0.8-3.4c0-1.3,0.3-2.4,0.8-3.4c0.5-1,1.3-1.8,2.2-2.4
		c1-0.6,2-0.9,3.2-0.9c1.2,0,2.3,0.3,3.2,0.9c1,0.6,1.7,1.4,2.2,2.4c0.5,1,0.8,2.1,0.8,3.4c0,1.3-0.3,2.4-0.8,3.4
		c-0.5,1-1.3,1.8-2.2,2.4c-1,0.6-2,0.9-3.2,0.9C94.9,14.5,93.8,14.2,92.9,13.7L92.9,13.7z M98.5,12.3c0.7-0.4,1.2-1,1.6-1.8
		c0.4-0.8,0.6-1.6,0.6-2.6c0-1-0.2-1.9-0.6-2.6c-0.4-0.8-0.9-1.4-1.6-1.8C97.8,3,97,2.8,96.1,2.8c-0.9,0-1.7,0.2-2.4,0.6
		c-0.7,0.4-1.2,1-1.6,1.8c-0.4,0.8-0.6,1.6-0.6,2.6c0,1,0.2,1.8,0.6,2.6c0.4,0.8,0.9,1.4,1.6,1.8c0.7,0.4,1.5,0.7,2.4,0.7
		C97,12.9,97.8,12.7,98.5,12.3L98.5,12.3z M104.4,1.5h2.3l6.1,10.9h0.1l-0.1-1.5V1.5h1.7v12.8h-2.3l-6.1-10.9H106l0.1,1.5v9.3h-1.7
		L104.4,1.5L104.4,1.5z M116.8,1.5h2.3l6.1,10.9h0.1l-0.1-1.5V1.5h1.7v12.8h-2.3l-6.1-10.9h-0.1l0.1,1.5v9.3h-1.7L116.8,1.5
		L116.8,1.5z M137.4,12.7v1.6h-8.3V1.5h8.1V3h-6.5v4.1h5.8v1.4h-5.8v4.1H137.4z M141.9,13.7c-1-0.6-1.7-1.3-2.3-2.3
		c-0.5-1-0.8-2.2-0.8-3.5c0-1.3,0.3-2.4,0.8-3.4s1.3-1.8,2.2-2.4c0.9-0.6,2-0.8,3.2-0.8c1.2,0,2.3,0.3,3.1,0.8
		c0.9,0.5,1.5,1.2,2,2.2l-1.3,0.9c-0.4-0.8-0.9-1.3-1.5-1.7c-0.6-0.4-1.3-0.6-2.3-0.6c-0.9,0-1.7,0.2-2.4,0.6
		c-0.7,0.4-1.2,1-1.6,1.8c-0.4,0.8-0.6,1.6-0.6,2.6c0,1,0.2,1.9,0.6,2.7c0.4,0.8,0.9,1.3,1.6,1.8c0.7,0.4,1.5,0.6,2.4,0.6
		c0.9,0,1.7-0.2,2.2-0.5c0.6-0.4,1-1,1.5-1.8l1.4,1c-0.5,1-1.2,1.7-2,2.2c-0.8,0.5-1.8,0.8-3,0.8C143.9,14.5,142.8,14.3,141.9,13.7
		L141.9,13.7z M160.9,3h-3.8v11.3h-1.7V3h-3.8V1.5h9.3L160.9,3L160.9,3z M160.9,3"/>
</g>
</svg>
